<svg id="svg" version="1.1" xmlns="http://www.w3.org/2000/svg" xmlns:xlink="http://www.w3.org/1999/xlink" width="400" height="225" viewBox="0, 0, 400,225"><g id="svgg"><path id="path0" d="M101.667 62.942 C 59.875 67.752,48.268 123.142,84.531 144.714 C 87.460 146.456,93.989 149.227,93.349 148.457 C 93.150 148.216,93.154 148.049,93.371 147.670 C 93.580 147.303,93.674 145.197,93.762 138.854 C 93.890 129.649,93.965 129.091,95.385 126.854 C 97.648 123.288,100.318 122.339,108.199 122.301 C 117.132 122.259,122.462 114.466,119.605 105.625 C 118.297 101.577,118.949 99.865,122.888 97.004 C 124.812 95.606,125.304 95.702,126.689 97.741 C 133.240 107.388,130.536 120.925,120.753 127.464 C 117.040 129.946,114.062 130.809,108.487 131.019 C 103.259 131.217,103.854 129.920,103.854 141.101 C 103.854 147.001,103.779 150.368,103.646 150.466 C 103.331 150.697,109.631 150.652,111.771 150.408 C 128.416 148.507,142.776 136.923,148.254 120.979 C 155.449 100.031,145.983 77.039,126.146 67.280 C 122.926 65.696,118.948 64.173,119.376 64.688 C 119.772 65.165,119.671 81.075,119.259 83.040 C 118.122 88.478,114.417 90.833,107.002 90.833 C 102.890 90.833,101.107 91.165,98.899 92.339 C 93.837 95.030,91.656 101.712,93.721 108.203 C 94.794 111.578,94.415 112.867,91.677 115.146 C 88.612 117.697,88.219 117.686,86.417 114.999 C 81.967 108.368,82.014 98.558,86.528 91.802 C 90.987 85.129,97.589 81.878,106.686 81.876 C 109.876 81.875,109.583 82.858,109.583 72.129 C 109.583 63.793,109.610 63.130,109.948 62.933 C 110.402 62.669,103.984 62.675,101.667 62.942 " stroke="none" fill="#1e8cea" fill-rule="evenodd"></path><path id="path1" d="M0.000 112.500 L 0.000 225.000 200.000 225.000 L 400.000 225.000 400.000 112.500 L 400.000 0.000 200.000 0.000 L 0.000 0.000 0.000 112.500 M125.122 23.189 C 125.895 24.087,125.895 29.246,125.122 30.145 L 124.619 30.729 106.667 30.729 L 88.714 30.729 88.211 30.145 C 87.563 29.391,87.435 24.233,88.043 23.365 C 88.625 22.534,88.918 22.522,106.945 22.563 L 124.620 22.604 125.122 23.189 M125.129 34.068 C 125.911 34.850,125.831 40.620,125.029 41.269 C 124.260 41.891,89.073 41.891,88.304 41.269 C 87.503 40.620,87.423 34.850,88.205 34.068 L 88.731 33.542 106.667 33.542 L 124.602 33.542 125.129 34.068 M124.655 44.606 C 125.796 45.126,126.155 50.819,125.122 52.020 L 124.619 52.604 106.667 52.604 L 88.714 52.604 88.211 52.020 C 87.217 50.863,87.531 45.145,88.618 44.619 C 89.264 44.306,123.969 44.294,124.655 44.606 M82.864 48.654 C 84.941 49.522,85.265 50.382,85.406 55.417 C 85.541 60.195,85.152 59.856,88.898 58.455 C 100.546 54.097,113.626 54.218,125.383 58.792 C 126.569 59.253,127.614 59.549,127.708 59.450 C 127.802 59.352,127.915 57.490,127.959 55.313 C 128.031 51.740,128.083 51.270,128.493 50.488 C 129.999 47.615,134.049 47.587,135.729 50.439 C 136.118 51.098,136.149 51.575,136.199 57.500 C 136.264 65.203,136.088 64.438,138.172 66.045 C 164.572 86.399,164.572 126.934,138.172 147.288 C 136.088 148.895,136.264 148.130,136.199 155.833 C 136.149 161.759,136.118 162.235,135.729 162.895 C 134.049 165.746,129.999 165.718,128.493 162.845 C 128.083 162.064,128.031 161.593,127.959 158.021 C 127.915 155.844,127.802 153.982,127.708 153.883 C 127.614 153.784,126.569 154.081,125.383 154.542 C 113.636 159.111,100.536 159.232,88.898 154.879 C 85.152 153.477,85.541 153.138,85.406 157.917 C 85.304 161.552,85.244 162.070,84.839 162.845 C 83.337 165.718,79.284 165.746,77.604 162.895 C 77.216 162.235,77.184 161.759,77.134 155.833 C 77.069 148.130,77.246 148.895,75.162 147.288 C 49.024 127.136,48.687 87.241,74.479 66.622 C 75.625 65.706,76.680 64.808,76.823 64.626 C 77.018 64.378,77.084 62.747,77.084 58.137 C 77.085 54.483,77.175 51.659,77.304 51.192 C 77.934 48.924,80.598 47.707,82.864 48.654 M110.469 63.983 C 110.269 64.188,110.208 66.266,110.208 72.922 L 110.208 81.594 109.717 82.055 C 109.264 82.481,108.979 82.523,106.019 82.603 C 97.177 82.842,91.256 85.848,87.001 92.257 C 82.909 98.420,82.790 107.998,86.726 114.322 C 88.249 116.768,88.483 116.805,90.815 114.960 C 93.853 112.558,94.071 111.871,93.002 108.061 C 90.749 100.031,93.788 93.320,100.829 90.780 C 101.788 90.434,102.776 90.339,106.771 90.210 C 110.244 90.097,111.797 89.966,112.416 89.735 C 115.592 88.548,117.504 86.652,118.455 83.750 C 118.785 82.741,118.840 81.592,118.909 74.129 L 118.987 65.654 118.462 65.309 C 117.368 64.593,110.917 63.522,110.469 63.983 M366.458 79.858 C 368.441 80.879,365.340 86.434,361.875 88.068 C 359.550 89.164,359.504 89.167,342.192 89.167 C 323.889 89.167,325.290 89.309,325.467 87.467 C 325.795 84.056,329.507 80.447,333.333 79.820 C 335.270 79.502,365.837 79.537,366.458 79.858 M289.884 80.122 C 290.183 80.421,290.210 82.817,290.160 105.070 L 290.104 129.688 289.391 131.003 C 288.060 133.458,285.581 135.133,282.953 135.351 C 280.586 135.547,280.818 138.370,280.882 110.188 L 280.938 85.729 281.410 84.704 C 282.960 81.343,288.246 78.485,289.884 80.122 M321.138 80.126 C 321.621 80.609,321.865 80.130,313.998 94.131 C 308.894 103.215,306.792 107.142,306.792 107.592 C 306.792 108.095,308.690 110.920,315.827 121.042 C 320.796 128.089,324.961 134.116,325.084 134.436 C 325.438 135.361,325.088 135.439,320.938 135.367 C 314.752 135.259,315.320 135.756,305.521 121.905 C 295.791 108.151,296.590 109.406,296.494 107.710 C 296.388 105.830,296.160 106.271,303.737 93.646 C 310.485 82.402,310.727 82.046,312.294 81.040 C 314.148 79.851,320.233 79.221,321.138 80.126 M212.301 82.262 C 221.717 96.605,211.568 114.798,193.854 115.332 C 188.018 115.508,188.542 114.916,188.542 121.341 C 188.542 124.124,188.446 126.906,188.329 127.523 C 187.646 131.127,184.786 134.165,181.173 135.127 C 178.612 135.809,178.750 136.372,178.750 125.219 C 178.750 113.588,178.866 112.932,181.405 110.190 C 183.855 107.543,185.307 107.089,191.979 106.881 C 195.783 106.763,197.195 106.644,197.881 106.387 C 204.863 103.767,207.801 96.808,205.283 88.854 C 204.349 85.903,204.843 84.404,207.474 82.210 C 210.389 79.777,210.672 79.781,212.301 82.262 M242.245 81.250 C 242.442 81.624,242.500 82.506,242.451 84.375 C 242.348 88.271,241.733 89.280,238.298 91.185 C 224.766 98.695,224.998 117.733,238.705 124.666 C 241.560 126.110,242.339 127.480,242.446 131.250 C 242.557 135.177,242.377 135.363,239.320 134.486 C 219.257 128.731,212.572 103.598,227.122 88.628 C 232.016 83.593,241.134 79.145,242.245 81.250 M255.321 81.029 C 271.170 85.421,279.966 103.481,273.529 118.415 C 270.285 125.939,264.037 131.645,256.151 134.283 C 252.509 135.502,252.499 135.495,252.502 131.573 C 252.505 127.351,253.095 126.271,256.337 124.560 C 269.580 117.571,270.070 98.952,257.205 91.563 C 252.900 89.089,252.500 88.453,252.500 84.080 C 252.500 80.271,252.518 80.252,255.321 81.029 M351.970 93.875 C 352.271 94.176,352.298 95.848,352.245 111.114 L 352.188 128.021 351.705 129.217 C 350.415 132.409,347.644 134.692,344.331 135.293 C 342.596 135.607,342.708 136.780,342.708 118.344 C 342.708 100.671,342.701 100.799,343.906 98.484 C 345.574 95.280,350.538 92.443,351.970 93.875 M124.375 96.828 C 123.919 96.983,121.435 98.912,120.867 99.554 C 119.454 101.151,119.314 102.427,120.232 105.339 C 122.725 113.239,119.155 120.527,111.771 122.607 C 110.863 122.863,109.238 122.999,105.833 123.103 L 101.146 123.247 99.708 123.963 C 95.013 126.304,94.486 127.859,94.482 139.375 L 94.479 147.813 95.208 148.169 C 96.166 148.638,101.897 149.675,102.580 149.504 L 103.112 149.370 103.171 140.420 L 103.229 131.470 103.697 131.001 C 104.139 130.560,104.397 130.525,108.177 130.387 C 121.554 129.899,130.178 121.004,129.519 108.374 C 129.245 103.133,126.167 96.223,124.375 96.828 M125.122 161.314 C 125.689 161.972,125.889 166.901,125.394 167.988 C 124.948 168.967,125.118 168.958,106.667 168.958 C 88.216 168.958,88.386 168.967,87.940 167.988 C 87.497 167.018,87.641 162.016,88.129 161.396 C 88.724 160.640,87.781 160.675,107.049 160.703 L 124.620 160.729 125.122 161.314 M125.029 172.064 C 125.831 172.713,125.911 178.483,125.129 179.265 L 124.602 179.792 106.667 179.792 L 88.731 179.792 88.205 179.265 C 87.423 178.483,87.503 172.713,88.304 172.064 C 89.073 171.443,124.260 171.443,125.029 172.064 M125.122 183.189 C 125.895 184.087,125.895 189.246,125.122 190.145 L 124.619 190.729 106.667 190.729 L 88.714 190.729 88.211 190.145 C 87.563 189.391,87.435 184.233,88.043 183.365 C 88.625 182.534,88.918 182.522,106.945 182.563 L 124.620 182.604 125.122 183.189 " stroke="none" fill="#fefeff" fill-rule="evenodd"></path><path id="path2" d="M89.077 23.869 C 88.600 24.347,88.600 28.987,89.077 29.464 C 89.577 29.964,123.757 29.964,124.256 29.464 C 124.517 29.203,124.583 28.635,124.583 26.667 C 124.583 24.699,124.517 24.130,124.256 23.869 C 123.757 23.370,89.577 23.370,89.077 23.869 M89.213 34.699 C 88.670 35.080,88.490 39.865,89.000 40.375 C 89.362 40.737,123.971 40.737,124.333 40.375 C 124.843 39.865,124.664 35.080,124.120 34.699 C 123.417 34.206,89.917 34.206,89.213 34.699 M89.000 45.667 C 88.490 46.177,88.670 50.962,89.213 51.342 C 89.623 51.629,91.626 51.667,106.667 51.667 C 121.707 51.667,123.710 51.629,124.120 51.342 C 124.664 50.962,124.843 46.177,124.333 45.667 C 123.971 45.304,89.362 45.304,89.000 45.667 M79.896 49.574 C 78.287 50.239,78.126 51.008,78.116 58.086 C 78.104 65.427,78.278 64.848,75.417 67.118 C 49.926 87.340,49.926 125.994,75.417 146.216 C 78.278 148.486,78.104 147.903,78.116 155.267 C 78.127 163.087,78.343 163.735,80.992 163.905 C 83.786 164.084,84.364 162.946,84.370 157.254 C 84.376 151.862,84.275 151.984,87.613 153.348 C 99.681 158.280,113.643 158.279,125.712 153.345 C 129.053 151.978,128.957 151.863,128.963 157.254 C 128.969 162.946,129.547 164.084,132.341 163.905 C 134.990 163.735,135.206 163.087,135.218 155.267 C 135.229 147.903,135.055 148.486,137.917 146.216 C 163.406 125.995,163.406 87.338,137.917 67.118 C 135.055 64.848,135.229 65.430,135.218 58.066 C 135.206 50.246,134.990 49.599,132.341 49.429 C 129.547 49.249,128.969 50.387,128.963 56.079 C 128.957 61.471,129.053 61.355,125.712 59.989 C 113.643 55.055,99.681 55.053,87.613 59.985 C 84.275 61.349,84.376 61.471,84.370 56.079 C 84.364 50.164,83.058 48.266,79.896 49.574 M113.204 63.037 C 148.848 68.589,163.170 112.439,137.631 137.822 C 106.870 168.394,54.957 140.351,63.565 97.813 C 68.128 75.263,90.605 59.516,113.204 63.037 M89.213 161.991 C 88.670 162.371,88.490 167.157,89.000 167.667 C 89.362 168.029,123.971 168.029,124.333 167.667 C 124.843 167.157,124.664 162.371,124.120 161.991 C 123.710 161.704,121.707 161.667,106.667 161.667 C 91.626 161.667,89.623 161.704,89.213 161.991 M89.000 172.958 C 88.490 173.468,88.670 178.254,89.213 178.634 C 89.623 178.921,91.626 178.958,106.667 178.958 C 121.707 178.958,123.710 178.921,124.120 178.634 C 124.664 178.254,124.843 173.468,124.333 172.958 C 123.971 172.596,89.362 172.596,89.000 172.958 M89.077 183.869 C 88.600 184.347,88.600 188.987,89.077 189.464 C 89.577 189.964,123.757 189.964,124.256 189.464 C 124.517 189.203,124.583 188.635,124.583 186.667 C 124.583 184.699,124.517 184.130,124.256 183.869 C 123.757 183.370,89.577 183.370,89.077 183.869 " stroke="none" fill="#222222" fill-rule="evenodd"></path><path id="path3" d="M88.824 22.705 C 87.551 23.224,87.088 28.839,88.211 30.145 L 88.714 30.729 106.667 30.729 L 124.619 30.729 125.122 30.145 C 125.895 29.246,125.895 24.087,125.122 23.189 L 124.620 22.604 106.945 22.563 C 97.224 22.541,89.070 22.605,88.824 22.705 M124.256 23.869 C 124.517 24.130,124.583 24.699,124.583 26.667 C 124.583 28.635,124.517 29.203,124.256 29.464 C 123.757 29.964,89.577 29.964,89.077 29.464 C 88.600 28.987,88.600 24.347,89.077 23.869 C 89.577 23.370,123.757 23.370,124.256 23.869 M88.205 34.068 C 87.423 34.850,87.503 40.620,88.304 41.269 C 89.073 41.891,124.260 41.891,125.029 41.269 C 125.831 40.620,125.911 34.850,125.129 34.068 L 124.602 33.542 106.667 33.542 L 88.731 33.542 88.205 34.068 M124.120 34.699 C 124.664 35.080,124.843 39.865,124.333 40.375 C 123.971 40.737,89.362 40.737,89.000 40.375 C 88.490 39.865,88.670 35.080,89.213 34.699 C 89.917 34.206,123.417 34.206,124.120 34.699 M88.618 44.619 C 87.531 45.145,87.217 50.863,88.211 52.020 L 88.714 52.604 106.667 52.604 L 124.619 52.604 125.122 52.020 C 126.155 50.819,125.796 45.126,124.655 44.606 C 123.969 44.294,89.264 44.306,88.618 44.619 M124.333 45.667 C 124.843 46.177,124.664 50.962,124.120 51.342 C 123.417 51.835,89.917 51.835,89.213 51.342 C 88.670 50.962,88.490 46.177,89.000 45.667 C 89.362 45.304,123.971 45.304,124.333 45.667 M79.425 48.678 C 77.296 49.727,77.086 50.576,77.084 58.137 C 77.084 62.747,77.018 64.378,76.823 64.626 C 76.680 64.808,75.625 65.706,74.479 66.622 C 48.687 87.241,49.024 127.136,75.162 147.288 C 77.246 148.895,77.069 148.130,77.134 155.833 C 77.184 161.759,77.216 162.235,77.604 162.895 C 79.284 165.746,83.337 165.718,84.839 162.845 C 85.244 162.070,85.304 161.552,85.406 157.917 C 85.541 153.138,85.152 153.477,88.898 154.879 C 100.536 159.232,113.636 159.111,125.383 154.542 C 126.569 154.081,127.614 153.784,127.708 153.883 C 127.802 153.982,127.915 155.844,127.959 158.021 C 128.031 161.593,128.083 162.064,128.493 162.845 C 129.999 165.718,134.049 165.746,135.729 162.895 C 136.118 162.235,136.149 161.759,136.199 155.833 C 136.264 148.130,136.088 148.895,138.172 147.288 C 164.572 126.934,164.572 86.399,138.172 66.045 C 136.088 64.438,136.264 65.203,136.199 57.500 C 136.149 51.575,136.118 51.098,135.729 50.439 C 134.049 47.587,129.999 47.615,128.493 50.488 C 128.083 51.270,128.031 51.740,127.959 55.313 C 127.915 57.490,127.802 59.352,127.708 59.450 C 127.614 59.549,126.569 59.253,125.383 58.792 C 113.626 54.218,100.546 54.097,88.898 58.455 C 85.152 59.856,85.541 60.195,85.406 55.417 C 85.285 51.113,85.102 50.305,84.025 49.331 C 82.951 48.359,80.715 48.042,79.425 48.678 M82.877 49.797 C 84.164 50.581,84.365 51.429,84.370 56.079 C 84.376 61.471,84.275 61.349,87.613 59.985 C 99.681 55.053,113.643 55.055,125.712 59.989 C 129.053 61.355,128.957 61.471,128.963 56.079 C 128.969 50.387,129.547 49.249,132.341 49.429 C 134.990 49.599,135.206 50.246,135.218 58.066 C 135.229 65.430,135.055 64.848,137.917 67.118 C 163.406 87.338,163.406 125.995,137.917 146.216 C 135.055 148.486,135.229 147.903,135.218 155.267 C 135.206 163.087,134.990 163.735,132.341 163.905 C 129.547 164.084,128.969 162.946,128.963 157.254 C 128.957 151.863,129.053 151.978,125.712 153.345 C 113.643 158.279,99.681 158.280,87.613 153.348 C 84.275 151.984,84.376 151.862,84.370 157.254 C 84.364 162.946,83.786 164.084,80.992 163.905 C 78.343 163.735,78.127 163.087,78.116 155.267 C 78.104 147.903,78.278 148.486,75.417 146.216 C 49.926 125.994,49.926 87.340,75.417 67.118 C 78.278 64.848,78.104 65.427,78.116 58.086 C 78.125 51.681,78.188 51.142,79.024 50.238 C 79.916 49.274,81.687 49.072,82.877 49.797 M109.948 62.933 C 109.610 63.130,109.583 63.795,109.583 72.166 C 109.583 82.878,109.886 81.875,106.650 81.876 C 97.591 81.878,90.980 85.140,86.528 91.802 C 82.014 98.558,81.967 108.368,86.417 114.999 C 88.219 117.686,88.612 117.697,91.677 115.146 C 94.415 112.867,94.794 111.578,93.721 108.203 C 91.656 101.712,93.837 95.030,98.899 92.339 C 101.107 91.165,102.890 90.833,107.002 90.833 C 114.417 90.833,118.122 88.478,119.259 83.040 C 119.810 80.409,119.762 65.023,119.202 64.570 C 118.147 63.715,110.827 62.421,109.948 62.933 M115.479 64.466 C 116.831 64.741,118.173 65.120,118.462 65.309 L 118.987 65.654 118.909 74.129 C 118.840 81.592,118.785 82.741,118.455 83.750 C 117.504 86.652,115.592 88.548,112.416 89.735 C 111.797 89.966,110.244 90.097,106.771 90.210 C 102.776 90.339,101.788 90.434,100.829 90.780 C 93.788 93.320,90.749 100.031,93.002 108.061 C 94.071 111.871,93.853 112.558,90.815 114.960 C 88.483 116.805,88.249 116.768,86.726 114.322 C 82.790 107.998,82.909 98.420,87.001 92.257 C 91.256 85.848,97.177 82.842,106.019 82.603 C 108.979 82.523,109.264 82.481,109.717 82.055 L 110.208 81.594 110.208 72.922 C 110.208 66.266,110.269 64.188,110.469 63.983 C 110.791 63.652,112.078 63.776,115.479 64.466 M333.333 79.820 C 329.507 80.447,325.795 84.056,325.467 87.467 C 325.290 89.309,323.889 89.167,342.192 89.167 C 359.504 89.167,359.550 89.164,361.875 88.068 C 365.340 86.434,368.441 80.879,366.458 79.858 C 365.837 79.537,335.270 79.502,333.333 79.820 M286.439 80.187 C 284.257 80.885,282.404 82.550,281.410 84.704 L 280.938 85.729 280.882 110.188 C 280.818 138.370,280.586 135.547,282.953 135.351 C 285.581 135.133,288.060 133.458,289.391 131.003 L 290.104 129.688 290.160 105.070 C 290.210 82.817,290.183 80.421,289.884 80.122 C 289.444 79.682,287.928 79.710,286.439 80.187 M314.382 80.125 C 313.129 80.462,311.647 81.331,310.792 82.231 C 310.181 82.873,297.480 103.935,296.825 105.392 C 296.160 106.871,296.362 108.796,297.337 110.264 C 300.300 114.727,313.122 132.564,313.875 133.270 C 315.741 135.020,316.659 135.293,320.938 135.367 C 325.088 135.439,325.438 135.361,325.084 134.436 C 324.961 134.116,320.796 128.089,315.827 121.042 C 308.690 110.920,306.792 108.095,306.792 107.592 C 306.792 107.142,308.894 103.215,313.998 94.131 C 321.865 80.130,321.621 80.609,321.138 80.126 C 320.689 79.677,316.051 79.677,314.382 80.125 M209.696 80.534 C 205.826 82.542,204.235 85.543,205.283 88.854 C 207.801 96.808,204.863 103.767,197.881 106.387 C 197.195 106.644,195.783 106.763,191.979 106.881 C 185.307 107.089,183.855 107.543,181.405 110.190 C 178.866 112.932,178.750 113.588,178.750 125.219 C 178.750 136.372,178.612 135.809,181.173 135.127 C 184.786 134.165,187.646 131.127,188.329 127.523 C 188.446 126.906,188.542 124.124,188.542 121.341 C 188.542 114.916,188.018 115.508,193.854 115.332 C 205.752 114.974,214.345 107.352,215.657 95.993 C 216.406 89.512,212.402 79.130,209.696 80.534 M238.542 81.365 C 223.719 86.395,215.643 102.349,220.670 116.667 C 223.627 125.085,230.954 132.086,239.320 134.486 C 242.377 135.363,242.557 135.177,242.446 131.250 C 242.339 127.480,241.560 126.110,238.705 124.666 C 224.998 117.733,224.766 98.695,238.298 91.185 C 241.733 89.280,242.348 88.271,242.451 84.375 C 242.558 80.328,242.263 80.102,238.542 81.365 M252.750 80.875 C 252.579 81.046,252.500 82.060,252.500 84.080 C 252.500 88.453,252.900 89.089,257.205 91.563 C 270.070 98.952,269.580 117.571,256.337 124.560 C 253.095 126.271,252.505 127.351,252.502 131.573 C 252.499 135.495,252.509 135.502,256.151 134.283 C 279.173 126.580,282.617 96.272,261.875 83.914 C 258.113 81.673,253.491 80.134,252.750 80.875 M349.479 93.834 C 346.269 94.852,343.619 97.756,342.940 101.000 C 342.454 103.318,342.631 134.506,343.133 135.008 C 344.768 136.643,350.183 132.984,351.705 129.217 L 352.188 128.021 352.245 111.114 C 352.298 95.848,352.271 94.176,351.970 93.875 C 351.577 93.482,350.638 93.466,349.479 93.834 M122.888 97.004 C 118.949 99.865,118.297 101.577,119.605 105.625 C 122.462 114.466,117.132 122.259,108.199 122.301 C 100.318 122.339,97.648 123.288,95.385 126.854 C 93.965 129.091,93.890 129.649,93.762 138.854 C 93.674 145.197,93.580 147.303,93.371 147.670 C 92.895 148.505,93.419 148.838,96.354 149.564 C 98.663 150.135,102.733 150.716,103.346 150.562 L 103.854 150.435 103.854 141.163 C 103.854 129.911,103.258 131.217,108.487 131.019 C 114.062 130.809,117.040 129.946,120.753 127.464 C 130.536 120.925,133.240 107.388,126.689 97.741 C 125.304 95.702,124.812 95.606,122.888 97.004 M126.076 97.980 C 130.363 103.782,130.726 113.407,126.904 119.950 C 122.869 126.860,117.126 130.060,108.177 130.387 C 104.397 130.525,104.139 130.560,103.697 131.001 L 103.229 131.470 103.171 140.420 L 103.112 149.370 102.580 149.504 C 101.897 149.675,96.166 148.638,95.208 148.169 L 94.479 147.813 94.482 139.375 C 94.486 127.859,95.013 126.304,99.708 123.963 L 101.146 123.247 105.833 123.103 C 109.238 122.999,110.863 122.863,111.771 122.607 C 119.155 120.527,122.725 113.239,120.232 105.339 C 119.079 101.683,119.503 100.419,122.708 97.969 C 124.717 96.433,124.934 96.434,126.076 97.980 M89.015 160.769 C 87.311 161.107,87.021 167.972,88.679 168.727 C 89.038 168.891,94.299 168.958,106.667 168.958 C 125.118 168.958,124.948 168.967,125.394 167.988 C 125.889 166.901,125.689 161.972,125.122 161.314 L 124.620 160.729 107.049 160.703 C 97.386 160.689,89.270 160.719,89.015 160.769 M124.120 161.991 C 124.664 162.371,124.843 167.157,124.333 167.667 C 123.971 168.029,89.362 168.029,89.000 167.667 C 88.490 167.157,88.670 162.371,89.213 161.991 C 89.623 161.704,91.626 161.667,106.667 161.667 C 121.707 161.667,123.710 161.704,124.120 161.991 M88.304 172.064 C 87.503 172.713,87.423 178.483,88.205 179.265 L 88.731 179.792 106.667 179.792 L 124.602 179.792 125.129 179.265 C 125.911 178.483,125.831 172.713,125.029 172.064 C 124.260 171.443,89.073 171.443,88.304 172.064 M124.333 172.958 C 124.843 173.468,124.664 178.254,124.120 178.634 C 123.710 178.921,121.707 178.958,106.667 178.958 C 91.626 178.958,89.623 178.921,89.213 178.634 C 88.670 178.254,88.490 173.468,89.000 172.958 C 89.362 172.596,123.971 172.596,124.333 172.958 M88.824 182.705 C 87.551 183.224,87.088 188.839,88.211 190.145 L 88.714 190.729 106.667 190.729 L 124.619 190.729 125.122 190.145 C 125.895 189.246,125.895 184.087,125.122 183.189 L 124.620 182.604 106.945 182.563 C 97.224 182.541,89.070 182.605,88.824 182.705 M124.256 183.869 C 124.517 184.130,124.583 184.699,124.583 186.667 C 124.583 188.635,124.517 189.203,124.256 189.464 C 123.757 189.964,89.577 189.964,89.077 189.464 C 88.600 188.987,88.600 184.347,89.077 183.869 C 89.577 183.370,123.757 183.370,124.256 183.869 " stroke="none" fill="#cbcbc4" fill-rule="evenodd"></path></g></svg>