<svg width="138" height="40" viewBox="0 0 138 40" fill="none" xmlns="http://www.w3.org/2000/svg">
<path d="M26.1609 1.12998V8.54016C26.1609 10.9444 24.1782 12.8904 21.7285 12.8904H21.6638C20.4354 12.8833 19.3291 12.8904 19.3291 12.8904C19.1207 12.8904 18.8908 12.8692 18.6897 12.8904C17.3104 13.0314 16.1107 13.6448 15.1049 14.7376C15.0762 14.7658 15.0474 14.8011 15.0259 14.8293C14.2141 15.8587 13.7687 17.1913 13.7687 18.6296V18.7001C13.7687 19.6237 13.9627 20.505 14.3147 21.2947C14.6667 22.0844 14.4871 23.001 13.8118 23.5509C13.1509 24.0938 12.3679 24.7284 11.8434 25.1443C10.3133 23.4381 9.41527 21.2101 9.41527 18.7776V18.7071C9.41527 13.4121 13.7328 8.99845 19.5949 8.99845C19.9612 8.99845 21.1538 8.99845 21.7141 8.99845V0.33326C21.24 0.298007 20.7586 0.276855 20.2773 0.276855C9.09918 0.276855 0.0402832 9.16767 0.0402832 20.1384C0.0402832 29.0997 6.08912 36.6721 14.3937 39.1398V31.786C14.3937 29.3606 16.398 27.3935 18.8693 27.3935H18.8908C20.1193 27.4005 21.2256 27.3935 21.2256 27.3935C21.4339 27.3935 21.6638 27.4146 21.865 27.3935C23.2443 27.2525 24.444 26.6391 25.4497 25.5462C25.4785 25.518 25.5072 25.4828 25.5288 25.4546C26.3405 24.4252 26.7859 23.0926 26.7859 21.6543V21.5838C26.7859 20.8646 26.477 19.8987 26.1681 19.1231C25.8233 18.2559 26.0891 17.2618 26.8147 16.6695C27.4397 16.1548 28.079 15.6472 28.7112 15.1466C30.2414 16.8528 31.1394 19.0808 31.1394 21.5133V21.5838C31.1394 26.8788 26.8219 31.2925 20.9598 31.2925C20.5934 31.2925 19.4009 31.2925 18.8405 31.2925V39.9436C19.3147 39.9788 19.796 40 20.2773 40C31.4555 40 40.5144 31.1091 40.5144 20.1384C40.5144 11.1771 34.4655 3.60474 26.1609 1.12998Z" fill="#1D8AED"/>
</svg>
