<?xml version="1.0" standalone="no"?>
<!DOCTYPE svg PUBLIC "-//W3C//DTD SVG 20010904//EN"
 "http://www.w3.org/TR/2001/REC-SVG-20010904/DTD/svg10.dtd">
<svg version="1.0" xmlns="http://www.w3.org/2000/svg"
 width="1024.000000pt" height="1024.000000pt" viewBox="0 0 1024.000000 1024.000000"
 preserveAspectRatio="xMidYMid meet">

<g transform="translate(0.000000,1024.000000) scale(0.100000,-0.100000)"
fill="#000000" stroke="none">
<path d="M4250 8960 l0 -160 870 0 870 0 0 160 0 160 -870 0 -870 0 0 -160z"/>
<path d="M4250 8440 l0 -160 870 0 870 0 0 160 0 160 -870 0 -870 0 0 -160z"/>
<path d="M4250 7910 l0 -160 870 0 870 0 0 160 0 160 -870 0 -870 0 0 -160z"/>
<path d="M3847 7876 c-48 -17 -71 -38 -91 -81 -14 -28 -16 -83 -16 -354 l0
-320 -77 -59 c-447 -340 -759 -807 -893 -1336 -59 -232 -74 -356 -74 -606 0
-250 15 -374 74 -606 134 -529 446 -996 892 -1336 l77 -58 3 -333 c3 -329 3
-332 26 -365 70 -98 219 -85 272 24 18 37 20 61 20 263 0 175 3 222 13 218 6
-3 62 -26 122 -52 225 -95 492 -157 768 -177 356 -26 760 41 1082 177 61 26
116 49 123 52 9 4 12 -43 12 -218 0 -202 2 -226 20 -263 53 -109 202 -122 272
-24 23 33 23 36 26 365 l3 333 77 59 c447 341 758 806 892 1335 59 232 74 356
74 606 0 250 -15 374 -74 606 -134 529 -445 994 -892 1335 l-77 59 -3 333 c-3
329 -3 332 -26 365 -70 98 -219 85 -272 -24 -18 -37 -20 -61 -20 -263 0 -175
-3 -222 -12 -218 -7 3 -62 26 -123 52 -322 136 -726 203 -1082 177 -276 -20
-543 -82 -768 -177 -60 -26 -116 -49 -122 -52 -10 -4 -13 43 -13 218 0 202 -2
226 -20 263 -36 74 -119 109 -193 82z m1468 -656 c1011 -95 1802 -884 1905
-1899 98 -975 -508 -1898 -1449 -2207 -748 -246 -1578 -46 -2141 516 -349 348
-560 793 -610 1289 -68 679 215 1373 739 1812 438 368 992 542 1556 489z"/>
<path d="M5020 7198 c-353 -26 -560 -82 -850 -229 -205 -104 -372 -229 -543
-403 -120 -122 -148 -158 -261 -326 -136 -203 -250 -497 -296 -765 -7 -38 -16
-92 -21 -118 -12 -65 -11 -341 1 -452 11 -90 18 -132 47 -255 41 -180 142
-438 214 -550 168 -263 248 -362 394 -494 159 -144 305 -244 504 -345 113 -58
269 -117 280 -106 2 3 5 186 7 407 2 372 4 408 23 471 41 138 117 227 251 291
l84 41 226 6 c236 7 273 13 355 48 126 56 205 128 262 237 55 106 73 180 73
302 0 89 -4 113 -35 203 -43 126 -46 189 -11 257 13 26 37 59 53 73 69 65 195
159 211 159 33 0 101 -89 161 -210 69 -138 100 -257 108 -410 12 -242 -42
-427 -189 -651 -66 -99 -157 -188 -272 -263 -194 -126 -329 -165 -611 -175
l-190 -6 0 -444 0 -443 130 1 c141 2 255 13 380 37 188 36 413 112 550 185 60
33 117 62 125 66 22 10 168 111 220 152 368 292 630 693 735 1126 9 39 20 86
25 105 54 216 50 568 -9 852 -72 341 -247 678 -490 945 -124 136 -216 216
-391 338 -104 73 -460 245 -508 245 -9 0 -12 -86 -12 -379 0 -414 -6 -482 -55
-586 -54 -113 -190 -218 -325 -249 -46 -11 -119 -16 -245 -16 -200 0 -249 -8
-362 -61 -137 -65 -246 -214 -284 -387 -31 -142 -22 -242 36 -406 31 -86 31
-117 1 -182 -19 -42 -45 -69 -136 -143 -61 -50 -119 -91 -129 -91 -35 0 -129
131 -183 255 -69 157 -81 220 -81 415 0 150 3 186 22 251 46 161 84 239 179
369 139 189 340 323 580 387 83 22 126 27 292 32 l195 6 3 438 c2 345 0 438
-10 442 -27 8 -137 10 -228 3z" fill="#1D8AED"/>
<path d="M4250 2330 l0 -160 870 0 870 0 0 160 0 160 -870 0 -870 0 0 -160z"/>
<path d="M4250 1800 l0 -160 870 0 870 0 0 160 0 160 -870 0 -870 0 0 -160z"/>
<path d="M4250 1280 l0 -160 870 0 870 0 0 160 0 160 -870 0 -870 0 0 -160z"/>
</g>
</svg>
