<?xml version="1.0" standalone="no"?>
<!DOCTYPE svg PUBLIC "-//W3C//DTD SVG 20010904//EN"
 "http://www.w3.org/TR/2001/REC-SVG-20010904/DTD/svg10.dtd">
<svg version="1.0" xmlns="http://www.w3.org/2000/svg"
 width="1024.000000pt" height="1024.000000pt" viewBox="0 0 1024.000000 1024.000000"
 preserveAspectRatio="xMidYMid meet">

<g transform="translate(0.000000,1024.000000) scale(0.100000,-0.100000)"
fill="#000000" stroke="none">
<path d="M4250 8960 l0 -160 870 0 870 0 0 160 0 160 -870 0 -870 0 0 -160z"/>
<path d="M4250 8440 l0 -160 870 0 870 0 0 160 0 160 -870 0 -870 0 0 -160z"/>
<path d="M4250 7910 l0 -160 870 0 870 0 0 160 0 160 -870 0 -870 0 0 -160z"/>
<path d="M3847 7876 c-48 -17 -71 -38 -91 -81 -14 -28 -16 -83 -16 -354 l0
-320 -77 -59 c-447 -340 -759 -807 -893 -1336 -59 -232 -74 -356 -74 -606 0
-250 15 -374 74 -606 134 -529 446 -996 892 -1336 l77 -58 3 -333 c3 -329 3
-332 26 -365 70 -98 219 -85 272 24 18 37 20 61 20 263 0 175 3 222 13 218 6
-3 62 -26 122 -52 225 -95 492 -157 768 -177 356 -26 760 41 1082 177 61 26
116 49 123 52 9 4 12 -43 12 -218 0 -202 2 -226 20 -263 53 -109 202 -122 272
-24 23 33 23 36 26 365 l3 333 77 59 c447 341 758 806 892 1335 59 232 74 356
74 606 0 250 -15 374 -74 606 -134 529 -445 994 -892 1335 l-77 59 -3 333 c-3
329 -3 332 -26 365 -70 98 -219 85 -272 -24 -18 -37 -20 -61 -20 -263 0 -175
-3 -222 -12 -218 -7 3 -62 26 -123 52 -322 136 -726 203 -1082 177 -276 -20
-543 -82 -768 -177 -60 -26 -116 -49 -122 -52 -10 -4 -13 43 -13 218 0 202 -2
226 -20 263 -36 74 -119 109 -193 82z m1468 -656 c1011 -95 1802 -884 1905
-1899 98 -975 -508 -1898 -1449 -2207 -748 -246 -1578 -46 -2141 516 -349 348
-560 793 -610 1289 -68 679 215 1373 739 1812 438 368 992 542 1556 489z"/>
<path d="M5020 7198 c-353 -26 -560 -82 -850 -229 -205 -104 -372 -229 -543
-403 -120 -122 -148 -158 -261 -326 -136 -203 -250 -497 -296 -765 -7 -38 -16
-92 -21 -118 -12 -65 -11 -341 1 -452 11 -90 18 -132 47 -255 41 -180 142
-438 214 -550 168 -263 248 -362 394 -494 159 -144 305 -244 504 -345 113 -58
269 -117 280 -106 2 3 5 186 7 407 2 372 4 408 23 471 41 138 117 227 251 291
l84 41 226 6 c236 7 273 13 355 48 126 56 205 128 262 237 55 106 73 180 73
302 0 89 -4 113 -35 203 -43 126 -46 189 -11 257 13 26 37 59 53 73 69 65 195
159 211 159 33 0 101 -89 161 -210 69 -138 100 -257 108 -410 12 -242 -42
-427 -189 -651 -66 -99 -157 -188 -272 -263 -194 -126 -329 -165 -611 -175
l-190 -6 0 -444 0 -443 130 1 c141 2 255 13 380 37 188 36 413 112 550 185 60
33 117 62 125 66 22 10 168 111 220 152 368 292 630 693 735 1126 9 39 20 86
25 105 54 216 50 568 -9 852 -72 341 -247 678 -490 945 -124 136 -216 216
-391 338 -104 73 -460 245 -508 245 -9 0 -12 -86 -12 -379 0 -414 -6 -482 -55
-586 -54 -113 -190 -218 -325 -249 -46 -11 -119 -16 -245 -16 -200 0 -249 -8
-362 -61 -137 -65 -246 -214 -284 -387 -31 -142 -22 -242 36 -406 31 -86 31
-117 1 -182 -19 -42 -45 -69 -136 -143 -61 -50 -119 -91 -129 -91 -35 0 -129
131 -183 255 -69 157 -81 220 -81 415 0 150 3 186 22 251 46 161 84 239 179
369 139 189 340 323 580 387 83 22 126 27 292 32 l195 6 3 438 c2 345 0 438
-10 442 -27 8 -137 10 -228 3z" fill="#1D8AED"/>
<path d="M4250 2330 l0 -160 870 0 870 0 0 160 0 160 -870 0 -870 0 0 -160z"/>
<path d="M4250 1800 l0 -160 870 0 870 0 0 160 0 160 -870 0 -870 0 0 -160z"/>
<path d="M4250 1280 l0 -160 870 0 870 0 0 160 0 160 -870 0 -870 0 0 -160z"/>
</g>
<path d="M126.175 17.8752V33.5486C128.747 33.5486 130.837 31.4969 130.837 28.9728V13.2993C128.266 13.2993 126.175 15.351 126.175 17.8752Z" fill="#cfcfc4"/>
<path d="M117.784 11.3181H133.302C135.895 11.3181 138 9.2523 138 6.70703H122.483C119.889 6.70703 117.784 8.77286 117.784 11.3181Z" fill="#cfcfc4"/>
<path d="M62.7199 6.77002C62.1955 7.17895 61.434 7.79941 60.7659 8.34935C59.9829 8.99096 59.753 10.0627 60.1481 10.9863C60.4857 11.79 60.6725 12.6855 60.6725 13.6232V13.7008C60.6725 15.2307 60.1984 16.6479 59.3363 17.7478C59.322 17.7619 59.3076 17.776 59.3004 17.7901C58.2156 18.9887 56.9225 19.6585 55.4355 19.8066C55.22 19.8277 54.9757 19.8066 54.753 19.8066C54.753 19.8066 53.5748 19.8136 52.2674 19.8066H52.2458C49.6093 19.8066 47.4757 21.9006 47.4757 24.4882V33.5553C50.0906 33.5553 52.2171 31.4753 52.2171 28.9019V23.9664C52.8133 23.9664 54.0849 23.9664 54.4728 23.9664C60.7156 23.9664 65.3133 19.2637 65.3133 13.6232V13.5457C65.299 10.9581 64.3435 8.58202 62.7199 6.77002Z" fill="#cfcfc4"/>
<path d="M101.067 6.7627V29.7265C101.067 31.8346 99.3146 33.5409 97.1666 33.5409H96.4482V10.5912C96.4482 8.48304 98.1867 6.7627 100.335 6.7627H101.067Z" fill="#cfcfc4"/>
<path d="M66.8722 20.2088C66.786 26.0749 70.8736 31.3487 76.513 33.0902C77.023 33.2453 77.5403 33.3723 78.0575 33.471C78.0791 33.471 78.0862 33.4639 78.0862 33.4498L78.1078 30.8129V30.7283C78.1006 29.8187 77.5906 29.0291 76.8434 28.5919C76.7572 28.5426 76.6566 28.4932 76.5417 28.4439C74.444 27.5062 72.8707 25.8281 71.9656 23.7411C70.069 19.3627 72.1452 14.0042 76.5417 12.0442C76.6495 11.9948 76.75 11.9455 76.8434 11.8961C77.5906 11.459 78.0934 10.6693 78.1078 9.75978V9.67517L78.0862 7.03824C78.0862 7.03119 78.0791 7.01709 78.0575 7.01709C77.5403 7.1158 77.023 7.24271 76.513 7.39782C70.8664 9.13227 66.7932 14.4132 66.8722 20.2793V20.2088Z" fill="#cfcfc4"/>
<path d="M94.0632 20.2088C94.1494 26.0749 90.0618 31.3487 84.4225 33.0902C83.9124 33.2453 83.3952 33.3723 82.8779 33.471C82.8564 33.471 82.8492 33.4639 82.8492 33.4498L82.8276 30.8129V30.7283C82.8348 29.8187 83.3449 29.0291 84.092 28.5919C84.1782 28.5426 84.2788 28.4932 84.3937 28.4439C86.4914 27.5062 88.0647 25.8281 88.9699 23.7411C90.8664 19.3627 88.7903 14.0042 84.3937 12.0442C84.286 11.9948 84.1854 11.9455 84.092 11.8961C83.3449 11.459 82.842 10.6693 82.8276 9.75978V9.67517L82.8492 7.03824C82.8492 7.03119 82.8564 7.01709 82.8779 7.01709C83.3952 7.1158 83.9124 7.24271 84.4225 7.39782C90.069 9.13227 94.1423 14.4132 94.0632 20.2793V20.2088Z" fill="#cfcfc4"/>
<path d="M104.214 21.2167C103.826 20.554 103.797 19.7502 104.113 19.0592L110.169 8.93456C110.78 7.61609 112.123 6.77002 113.603 6.77002H116.261L115.974 7.40457L108.797 20.1732L118.222 33.5482H114.918C113.56 33.5482 112.31 32.8291 111.635 31.6728L104.214 21.2167Z" fill="#cfcfc4"/>
</svg>
